<svg width="806" height="149" viewBox="0 0 806 149" fill="none" xmlns="http://www.w3.org/2000/svg">
<path d="M81.7009 79.7996L73.0508 77.872L79.779 87.5119V117.396L102.847 98.1159V65.3398L92.274 69.1957L81.7009 79.7996Z" fill="#2C3E50"/>
<path d="M27.8764 79.7996L36.5265 77.872L29.7983 87.5119V117.396L6.73047 98.1159V65.3398L17.3033 69.1957L27.8764 79.7996Z" fill="#2C3E50"/>
<path fill-rule="evenodd" clip-rule="evenodd" d="M32.5859 89.3209L40.2531 77.7295L45.0452 80.6272H64.2132L69.0047 77.7295L76.6719 89.3209V132.789L70.9218 141.482L64.2132 148.244H45.0452L38.3366 141.482L32.5859 132.789V89.3209Z" fill="#2C3E50"/>
<path d="M79.7773 135.713L92.2723 123.181V110.648L79.7773 121.252V135.713Z" fill="#2C3E50"/>
<path d="M29.7957 135.713L17.3008 123.181V110.648L29.7957 121.252V135.713Z" fill="#2C3E50"/>
<path fill-rule="evenodd" clip-rule="evenodd" d="M42.2947 21.959L34.6055 40.2751L47.1005 76.9076H52.8672V21.959H42.2947ZM56.7115 21.959V76.9076H63.4404L74.9744 40.2751L67.2847 21.959H56.7115Z" fill="#2C3E50"/>
<path d="M47.0973 76.9083L5.76704 61.4838L0 37.3838L35.5633 40.2758L48.0583 76.9083H47.0973Z" fill="#2C3E50"/>
<path d="M63.4375 76.9083L104.768 61.4838L110.535 37.3838L74.0106 40.2758L62.4766 76.9083H63.4375Z" fill="#2C3E50"/>
<path d="M76.8962 37.3831L97.081 35.4551L83.6245 21.959H70.168L76.8962 37.3831Z" fill="#2C3E50"/>
<path d="M32.6807 37.3831L12.4961 35.4551L25.9524 21.959H39.409L32.6807 37.3831Z" fill="#2C3E50"/>
<path d="M89.8437 8.07712H76.9388L54.8432 42.1182L32.7497 8.07712H19.8438L54.8443 62L89.8437 8.07712Z" fill="#2C3E50"/>
<path d="M73.2152 3.0372L54.8442 30.8244L36.4774 3.0372L49.9947 6.43035V2H59.6968V6.43035L73.2152 3.0372Z" fill="#2C3E50"/>
<path d="M89.8437 8.07712H76.9388L54.8432 42.1182L32.7497 8.07712H19.8438L54.8443 62L89.8437 8.07712Z" stroke="white" stroke-width="3"/>
<path d="M73.2152 3.0372L54.8442 30.8244L36.4774 3.0372L49.9947 6.43035V2H59.6968V6.43035L73.2152 3.0372Z" stroke="white" stroke-width="3"/>
<path d="M156.91 119.622V30.2471H196.91C215.16 30.2471 224.285 38.6429 224.285 55.4346C224.285 73.6429 211.806 84.6637 186.848 88.4971L184.473 73.7471C199.473 71.0387 206.973 65.1012 206.973 55.9346C206.973 48.5179 203.264 44.8096 195.848 44.8096H173.473V119.622H156.91ZM235.285 119.497V30.2471H275.91C294.16 30.2471 303.285 38.2262 303.285 54.1846C303.285 64.9762 296.181 73.9137 281.973 80.9971L310.285 119.622H289.41L262.223 80.6846V73.1221C278.056 70.4137 285.973 64.2679 285.973 54.6846C285.973 48.1012 282.264 44.8096 274.848 44.8096H252.16V119.497H235.285ZM334.723 30.2471V119.622H318.16V30.2471H334.723ZM353.535 119.622V30.2471H370.723L401.035 98.0596L430.723 30.2471H447.285V119.622H431.973V57.3721L407.723 119.622H393.598L368.848 57.3721V119.622H353.535ZM527.223 30.2471V44.4971H482.473V66.9971H525.098V81.8096H482.285V105.247H528.098V119.622H466.035V30.2471H527.223ZM541.848 115.872V100.872C550.806 104.205 560.931 105.872 572.223 105.872C585.931 105.872 592.785 101.289 592.785 92.1221C592.785 85.4554 588.577 82.1221 580.16 82.1221H566.16C547.868 82.1221 538.723 73.7887 538.723 57.1221C538.723 38.7887 551.743 29.6221 577.785 29.6221C587.785 29.6221 597.264 31.0804 606.223 33.9971V48.9971C597.264 45.6637 587.785 43.9971 577.785 43.9971C562.785 43.9971 555.285 48.3721 555.285 57.1221C555.285 63.7887 558.91 67.1221 566.16 67.1221H580.16C599.618 67.1221 609.348 75.4554 609.348 92.1221C609.348 110.872 596.973 120.247 572.223 120.247C560.931 120.247 550.806 118.789 541.848 115.872ZM632.598 119.622H615.598L653.535 30.2471H671.348L710.098 119.622H692.285L682.098 95.2471H652.41L658.098 80.8721H676.098L662.035 47.3096L632.598 119.622ZM748.41 74.9346L713.223 30.2471H734.16L758.848 62.8721L783.535 30.2471H804.473L769.348 74.9346L804.473 119.622H783.535L758.848 86.9971L734.16 119.622H713.223L748.41 74.9346Z" fill="#2C3E50"/>
</svg>
